# Blender v2.82 (sub 7) OBJ File: ''
# www.blender.org
mtllib boundingbox.mtl
o Cube
v 0.302586 0.302586 -0.302586
v 0.302586 -0.302586 -0.302586
v 0.302586 0.302586 0.302586
v 0.302586 -0.302586 0.302586
v -0.302586 0.302586 -0.302586
v -0.302586 -0.302586 -0.302586
v -0.302586 0.302586 0.302586
v -0.302586 -0.302586 0.302586
v 1.277269 1.234641 1.277269
v -1.277269 1.234641 1.277269
v 1.277269 1.234641 -1.277269
v -1.277269 1.234641 -1.277269
v 0.960582 1.973742 0.960582
v -0.960582 1.973742 0.960582
v 0.960582 1.973742 -0.960582
v -0.960582 1.973742 -0.960582
v -0.884370 -1.001035 -0.884370
v -0.884370 -1.001035 0.884370
v 0.884370 -1.001035 -0.884370
v 0.884370 -1.001035 0.884370
v -0.884370 -1.782073 -0.884370
v -0.884370 -1.782073 0.884370
v 0.884370 -1.782073 -0.884370
v 0.884370 -1.782073 0.884370
vt 0.625000 0.250000
vt 0.625000 0.000000
vt 0.625000 0.000000
vt 0.625000 0.250000
vt 0.375000 0.750000
vt 0.625000 0.750000
vt 0.625000 1.000000
vt 0.375000 1.000000
vt 0.375000 0.000000
vt 0.375000 0.250000
vt 0.375000 0.500000
vt 0.375000 0.500000
vt 0.375000 0.250000
vt 0.625000 0.500000
vt 0.625000 0.500000
vt 0.625000 0.250000
vt 0.625000 0.500000
vt 0.625000 0.750000
vt 0.625000 1.000000
vt 0.875000 0.500000
vt 0.875000 0.750000
vt 0.625000 0.750000
vt 0.625000 0.000000
vt 0.625000 1.000000
vt 0.375000 0.750000
vt 0.375000 1.000000
vt 0.375000 1.000000
vt 0.375000 0.750000
vt 0.375000 0.000000
vt 0.125000 0.500000
vt 0.375000 0.500000
vt 0.125000 0.750000
vt 0.375000 0.250000
vt 0.375000 0.000000
vn -0.6911 -0.7227 0.0000
vn 0.0000 0.0000 1.0000
vn -1.0000 0.0000 0.0000
vn 0.0000 0.6400 -0.7684
vn 1.0000 0.0000 0.0000
vn 0.0000 0.0000 -1.0000
vn 0.0000 0.3938 -0.9192
vn 0.6911 -0.7227 0.0000
vn 0.0000 -0.7227 -0.6911
vn 0.0000 -0.7227 0.6911
vn 0.0000 1.0000 0.0000
vn 0.9192 0.3938 0.0000
vn -0.9192 0.3938 0.0000
vn 0.0000 0.3938 0.9192
vn 0.0000 0.6400 0.7684
vn -0.7684 0.6400 0.0000
vn 0.7684 0.6400 0.0000
vn 0.0000 -1.0000 0.0000
usemtl Material
s off
f 5/1/1 7/2/1 10/3/1 12/4/1
f 4/5/2 3/6/2 7/7/2 8/8/2
f 8/9/3 7/2/3 5/1/3 6/10/3
f 6/10/4 2/11/4 19/12/4 17/13/4
f 2/11/5 1/14/5 3/6/5 4/5/5
f 6/10/6 5/1/6 1/14/6 2/11/6
f 11/15/7 12/4/7 16/16/7 15/17/7
f 3/6/8 1/14/8 11/15/8 9/18/8
f 1/14/9 5/1/9 12/4/9 11/15/9
f 7/7/10 3/6/10 9/18/10 10/19/10
f 15/17/11 16/20/11 14/21/11 13/22/11
f 9/18/12 11/15/12 15/17/12 13/22/12
f 12/4/13 10/3/13 14/23/13 16/16/13
f 10/19/14 9/18/14 13/22/14 14/24/14
f 20/25/2 18/26/2 22/27/2 24/28/2
f 4/5/15 8/8/15 18/26/15 20/25/15
f 8/9/16 6/10/16 17/13/16 18/29/16
f 2/11/17 4/5/17 20/25/17 19/12/17
f 21/30/18 23/31/18 24/28/18 22/32/18
f 18/29/3 17/13/3 21/33/3 22/34/3
f 19/12/5 20/25/5 24/28/5 23/31/5
f 17/13/6 19/12/6 23/31/6 21/33/6
